<?xml version="1.0" encoding="utf-8"?>
<!-- Generator: Adobe Illustrator 19.0.0, SVG Export Plug-In . SVG Version: 6.00 Build 0)  -->
<svg version="1.1" id="Layer_1" xmlns="http://www.w3.org/2000/svg" xmlns:xlink="http://www.w3.org/1999/xlink" x="0px" y="0px"
	 width="512px" height="512px" viewBox="-49 141 512 512" style="enable-background:new -49 141 512 512;" xml:space="preserve">
<path fill="#2f68a0" d="M-36.5,253.2H-2v34.4c0,6.9,5.6,12.5,12.5,12.5H51c6.9,0,12.5-5.6,12.5-12.5v-34.4h34.5c6.9,0,12.5-5.6,12.5-12.5v-40.3
	c0-6.9-5.6-12.5-12.5-12.5H63.5v-34.4c0-6.9-5.6-12.5-12.5-12.5H10.5C3.7,141-2,146.6-2,153.5v34.4h-34.5c-6.9,0-12.5,5.6-12.5,12.5
	v40.3C-49,247.6-43.4,253.2-36.5,253.2z M-34,202.9H0.5c6.9,0,12.5-5.6,12.5-12.5V156h35.5v34.4c0,6.9,5.6,12.5,12.5,12.5h34.5v35.3
	H61c-6.9,0-12.5,5.6-12.5,12.5V285H13v-34.4c0-6.9-5.6-12.5-12.5-12.5H-34V202.9z"/>
<path fill="#2f68a0" d="M219.4,253.5c-4.1,0-7.5,3.4-7.5,7.5v18.4c0,4.1,3.4,7.5,7.5,7.5c4.1,0,7.5-3.4,7.5-7.5V261
	C226.9,256.9,223.5,253.5,219.4,253.5z"/>
<path fill="#2f68a0" d="M366.2,466c-35.1,0-63.6,28.7-63.6,64.1c0,9.8,2.2,19.4,6.4,28c-0.5,0.2-0.9,0.4-1.4,0.7h-41.9v-86.4c0-4.1-3.4-7.5-7.5-7.5
	c-4.1,0-7.5,3.4-7.5,7.5v130.5h-85c0.3-18.8,15.5-34,34.2-34h14c4.1,0,7.5-3.4,7.5-7.5V361.7h19.7c20.9,0,39.7-8.7,53.3-22.6
	l14.1,58.5c0.8,3.4,3.9,5.8,7.3,5.8c0.6,0,1.2-0.1,1.8-0.2c4-1,6.5-5,5.5-9l-1.8-7.5c5.2,3.3,11.4,7.7,18,13.2
	c1.4,1.2,3.1,1.7,4.8,1.7c2.2,0,4.3-0.9,5.8-2.7c2.6-3.2,2.2-7.9-1-10.6c-13.9-11.4-25.9-18.4-32.4-21.8l-10.3-43
	c6.1-10.9,9.6-23.4,9.6-36.8c0-10.2-2-19.9-5.7-28.8c8.9-23.2,3.6-49.6-14.2-67.6c-9.1-9.2-20.7-15.3-33.4-17.6
	c-2.5-0.5-5.1,0.4-6.9,2.3c-3.8,4.1-6.9,8.6-9.3,13.4c-8.8-8.2-19.7-13.6-31.5-15.8c-2.5-0.5-5.1,0.4-6.9,2.3
	c-14,15.4-19.1,35.9-15.4,55c-9.9,8.7-17.5,19.9-21.8,32.6h-8.3c-2.9,0-5.7,0.3-8.4,0.7c-3.6-2.9-8.1-4.6-13.1-4.6h-14.3
	c-11.7,0-21.2,9.6-21.2,21.3c0,7.6,3.9,14.2,9.9,18c-1.3,4.5-2,9.2-2,14.1c0,27.3,22.1,49.5,49.2,49.5h44.3v192.1h-6.5
	c-27,0-48.9,21.9-49.2,49h-8.8v-0.1c0-6.8-5.4-12.3-12.2-12.5v-46.4c0-4.1-3.4-7.5-7.5-7.5c-4.1,0-7.5,3.4-7.5,7.5v48.9
	c0,6.8,5.4,12.3,12.2,12.5v6.6H104v-64.3c0-4.1-3.4-7.5-7.5-7.5s-7.5,3.4-7.5,7.5v55.3h-1.5v-0.1c0-6.4-4.9-11.8-11.2-12.4v-42.8
	c0-4.1-3.4-7.5-7.5-7.5s-7.5,3.4-7.5,7.5v45.2c0,6.4,4.9,11.8,11.2,12.4v6.7H50.7v-64.3c0-4.1-3.4-7.5-7.5-7.5
	c-4.1,0-7.5,3.4-7.5,7.5v55.3H6.1c1.4-54.7,18-90.2,31.8-110.4c2.9-4.2,5.7-7.9,8.5-11.3c12.1,9.5,28,15.3,45.3,15.3
	c8.1,0,15.8-1.3,23-3.5v14.9c0,4.1,3.4,7.5,7.5,7.5c4.1,0,7.5-3.4,7.5-7.5v-21.7c18.7-11.1,31.1-30.2,31.1-51.8
	c0-3.3-0.3-6.6-0.9-9.8c12.2-13.1,16.6-31.7,11.5-48.9c-0.5-1.7-1.4-3.2-2.7-4.5c-1.2-1.2-2.8-2.2-4.5-2.7
	c-4.7-1.4-9.5-2.1-14.4-2.1c-11.5,0-22.4,3.8-31.2,10.8c-8.3-3.2-17.3-4.9-26.9-4.9s-18.6,1.7-26.9,4.9c-8.9-7-19.8-10.8-31.2-10.8
	c-4.9,0-9.7,0.7-14.4,2.1c-1.7,0.5-3.2,1.4-4.5,2.7c-1.2,1.2-2.2,2.8-2.7,4.5C7,393,11.4,411.5,23.6,424.6c-0.6,3.2-0.9,6.5-0.9,9.8
	c0,13.5,4.8,26,13,36.2c-3.3,3.9-6.8,8.3-10.2,13.3c-7.7,11.2-16.2,26.8-22.8,47.2C2.1,512.1,7.2,492.8,18,476
	c5.2-8.1,2.8-18.8-5.3-24c-2.8-1.8-6-2.7-9.4-2.7c-6,0-11.4,3-14.6,8C-39.9,502-38.8,559.5-9.1,602.9h-32.4c-4.1,0-7.5,3.4-7.5,7.5
	c0,4.1,3.4,7.5,7.5,7.5h77.7c1.5,5.2,6.3,9,12,9h26.8c5.7,0,10.5-3.8,12-9h2.5c1.5,5.2,6.3,9,12,9h27.8c5.7,0,10.5-3.8,12-9H347
	c4.1,0,7.5-3.4,7.5-7.5c0-4.1-3.4-7.5-7.5-7.5h-52.3c0.2-15.9,11.5-29.9,27-33.2c2.4-0.5,4.5-2.2,5.4-4.6c0.9-2.3,0.6-5-0.8-7
	c-5.7-8.2-8.7-17.9-8.7-28c0-27.1,21.8-49.1,48.6-49.1c4.1,0,7.5-3.4,7.5-7.5S370.3,466,366.2,466z M216,188.4
	c8,2.2,15.3,6.4,21.3,12.4c1.1,1.1,2.1,2.2,3.1,3.4c-0.5,2.4-0.9,4.9-1.2,7.4c-11.9,0.3-23.1,3.4-33,8.8
	C205.6,209.2,208.8,197.8,216,188.4z M126.3,286.4c-3.4,0-6.2-2.8-6.2-6.3c0-3.5,2.8-6.3,6.2-6.3h14.3c3.4,0,6.2,2.8,6.2,6.3
	c0,3.5-2.8,6.3-6.2,6.3H126.3z M162.1,346.7c-18.9,0-34.2-15.5-34.2-34.5c0-3.8,0.6-7.4,1.7-10.8h11c11.7,0,21.2-9.6,21.2-21.3
	c0-0.8-0.1-1.6-0.1-2.4c0.2,0,0.3,0,0.5,0h5c-0.4,3-0.5,6-0.5,9c0,24.5,11.8,46.4,29.9,60.1L162.1,346.7L162.1,346.7z M181.6,286.6
	c0-32.6,25.8-59.2,57.9-60c1.2,8.8,4.3,17.4,9.2,25.3c2.2,3.5,6.9,4.5,10.4,2.3c3.5-2.2,4.5-6.8,2.3-10.3
	c-10.9-17.2-9.8-39.5,2.4-55.5c8,2.2,15.3,6.5,21.3,12.4c14.9,15.1,18.4,37.9,8.6,56.7c-1.9,3.7-0.5,8.2,3.2,10.1
	c0.3,0.1,0.6,0.3,0.8,0.4c1.9,5.9,3,12.1,3,18.6c0,33.1-26.7,60.1-59.5,60.1C208.3,346.7,181.6,319.8,181.6,286.6z M149.8,381.4
	c2.6,0,5.2,0.3,7.8,0.9c1.9,8.7,0.6,17.6-3.7,25.2c-4.7-8.8-11.6-16.4-20.1-22.3C138.7,382.8,144.2,381.4,149.8,381.4z M91.7,387.4
	c29.8,0,54.1,21.1,54.1,47.1s-24.3,47.1-54.1,47.1s-54.1-21.1-54.1-47.1C37.7,408.5,61.9,387.4,91.7,387.4z M29.5,407.5
	c-4.2-7.6-5.6-16.5-3.7-25.2c2.6-0.6,5.2-0.9,7.8-0.9c5.7,0,11.1,1.3,16,3.8C41.2,391.1,34.2,398.8,29.5,407.5z M-7,576
	c-15.7-35.3-13.2-77,8.3-110.6c0.4-0.7,1.2-1.1,2-1.1c0.5,0,0.9,0.1,1.3,0.4c1.1,0.7,1.4,2.2,0.7,3.3c-19.1,29.9-22.6,66.4-11,98.6
	C-6.2,569.6-6.6,572.7-7,576z M279.7,602.9h-14v-29.1h23.8C283.4,582,279.8,592.1,279.7,602.9z"/>
<path fill="#2f68a0" d="M73,434.4c4.1,0,7.5-3.4,7.5-7.5v-8.5c0-4.1-3.4-7.5-7.5-7.5s-7.5,3.4-7.5,7.5v8.5C65.5,431.1,68.8,434.4,73,434.4z"/>
<path fill="#2f68a0" d="M110.5,434.4c4.1,0,7.5-3.4,7.5-7.5v-8.5c0-4.1-3.4-7.5-7.5-7.5c-4.1,0-7.5,3.4-7.5,7.5v8.5
	C103,431.1,106.3,434.4,110.5,434.4z"/>
<path fill="#2f68a0" d="M80.7,467.5c4,0,7.8-1.2,11-3.3c3.2,2.1,7,3.3,11,3.3c11,0,20-9,20-20c0-4.1-3.4-7.5-7.5-7.5c-4.1,0-7.5,3.4-7.5,7.5
	c0,2.7-2.2,5-5,5c-1.8,0-3.5-1-4.4-2.7c-1.3-2.5-3.9-4-6.6-4s-5.3,1.5-6.6,4c-0.9,1.6-2.6,2.7-4.4,2.7c-2.7,0-5-2.2-5-5
	c0-4.1-3.4-7.5-7.5-7.5c-4.1,0-7.5,3.4-7.5,7.5C60.7,458.5,69.7,467.5,80.7,467.5z"/>
<path fill="#2f68a0" d="M455.5,602.9h-27.7v-40.3c19.2-13.3,30.9-34,34.2-60.9c3.1-24.9-2.1-46.1-2.7-48.4c-1.4-5.3-6.1-9-11.6-9
	c-0.4,0-0.8,0-1.4,0.1c-5.9,0.7-10.4,5.7-10.6,11.6c-0.4,16.5-8.2,30-17.2,40.2c-8.6-30.7-23.1-58.1-43.5-82.1
	c-2.7-3.1-7.4-3.5-10.6-0.8c-3.1,2.7-3.5,7.4-0.8,10.6c31.1,36.4,47.6,81.8,49,134.9l0.1,15v29.1H383c-4.1,0-7.5,3.4-7.5,7.5
	s3.4,7.5,7.5,7.5h72.5c4.1,0,7.5-3.4,7.5-7.5C463,606.2,459.6,602.9,455.5,602.9z M422.7,513.3c9.9-9.2,19.9-21.8,24.9-37.7
	c0.5,6.9,0.6,15.3-0.5,24.1c-2.3,18.3-9.2,33.1-20.2,44C426.1,533.3,424.7,523.2,422.7,513.3z"/>
</svg>
