<?xml version="1.0" encoding="utf-8"?>
<!-- Generator: Adobe Illustrator 19.0.0, SVG Export Plug-In . SVG Version: 6.00 Build 0)  -->
<svg version="1.1" id="Capa_1" xmlns="http://www.w3.org/2000/svg" xmlns:xlink="http://www.w3.org/1999/xlink" x="0px" y="0px"
	 width="47px" height="60px" viewBox="-268.5 367 47 60" style="enable-background:new -268.5 367 47 60;" xml:space="preserve">
<g>
	<path fill="#60ab98" d="M-232.5,389h-25c-0.6,0-1,0.4-1,1s0.4,1,1,1h25c0.6,0,1-0.4,1-1S-231.9,389-232.5,389z"/>
	<path fill="#60ab98" d="M-257.5,383h10c0.6,0,1-0.4,1-1s-0.4-1-1-1h-10c-0.6,0-1,0.4-1,1S-258.1,383-257.5,383z"/>
	<path fill="#60ab98" d="M-232.5,397h-25c-0.6,0-1,0.4-1,1s0.4,1,1,1h25c0.6,0,1-0.4,1-1S-231.9,397-232.5,397z"/>
	<path fill="#60ab98" d="M-232.5,405h-25c-0.6,0-1,0.4-1,1s0.4,1,1,1h25c0.6,0,1-0.4,1-1S-231.9,405-232.5,405z"/>
	<path fill="#60ab98" d="M-232.5,413h-25c-0.6,0-1,0.4-1,1s0.4,1,1,1h25c0.6,0,1-0.4,1-1S-231.9,413-232.5,413z"/>
	<path fill="#60ab98" d="M-236.1,367h-32.4v60h47v-45.4L-236.1,367z M-235.5,370.4l10.6,10.6h-10.6V370.4z M-266.5,425v-56h29v14h14v42H-266.5z"/>
</g>
</svg>
