<?xml version="1.0" encoding="utf-8"?>
<!-- Generator: Adobe Illustrator 19.0.0, SVG Export Plug-In . SVG Version: 6.00 Build 0)  -->
<svg version="1.1" id="d81c29d5-7fdc-47b3-9718-f4ff9e679c3f"
	 xmlns="http://www.w3.org/2000/svg" xmlns:xlink="http://www.w3.org/1999/xlink" x="0px" y="0px" width="760.3px" height="760.3px"
	 viewBox="74 16.7 760.3 760.3" style="enable-background:new 74 16.7 760.3 760.3;" xml:space="preserve">
<title>search</title>
<path fill="#9c9c9c" d="M647.3,542.2c46.6-57.3,72.1-129,72-202.9c0-177.9-144.7-322.7-322.7-322.7C218.7,16.7,74,161.4,74,339.3
	S218.7,662,396.7,662c73.9,0.1,145.5-25.4,202.9-72l187,187l47.8-47.8L647.3,542.2z M396.7,594.4C256,594.4,141.6,480,141.6,339.3
	S256,84.3,396.7,84.3c140.6,0,255.1,114.4,255.1,255.1S537.3,594.4,396.7,594.4z"/>
</svg>
