<svg height="368pt" viewBox="0 0 368 368.002" width="368pt" xmlns="http://www.w3.org/2000/svg"><path fill="#2f68a0" d="m363.832031 96.976562-176-96c-2.375-1.300781-5.277343-1.300781-7.65625 0l-176 96c-2.574219 1.402344-4.175781 4.097657-4.175781 7.027344v256c0 4.421875 3.578125 8 8 8h352c4.425781 0 8-3.578125 8-8v-256c0-2.929687-1.597656-5.625-4.167969-7.027344zm-299.832031 223.027344h240v32h-240zm176-16h-48v-48h48zm-32-64h-48v-48h48zm-56 16h24v48h-48v-48zm152 48h-48v-56c0-4.425781-3.574219-8-8-8h-24v-56c0-4.417968-3.574219-8-8-8h-64c-4.421875 0-8 3.582032-8 8v56h-24c-4.421875 0-8 3.574219-8 8v56h-48v-160h240zm48 48h-32v-216c0-4.417968-3.574219-8-8-8h-256c-4.421875 0-8 3.582032-8 8v216h-32v-243.25l168-91.640625 168 91.640625zm0 0"/><path fill="#2f68a0" d="m128 88.003906c0 4.414063 3.578125 8 8 8h96c4.425781 0 8-3.585937 8-8 0-4.417968-3.574219-8-8-8h-96c-4.421875 0-8 3.582032-8 8zm0 0"/></svg>